<svg width="24" height="24" viewBox="0 0 24 24" fill="none" xmlns="http://www.w3.org/2000/svg">
<path d="M19.3598 4.7227C18.7064 4.06167 17.8745 3.60543 16.9659 3.40982C16.0572 3.2142 15.1113 3.28769 14.2438 3.62128C13.3762 3.95488 12.6248 4.53412 12.0813 5.28813C11.5378 6.04213 11.2259 6.9382 11.1838 7.8667L16.211 12.8939C17.1389 12.8518 18.0344 12.5402 18.7882 11.9974C19.5419 11.4545 20.1211 10.7038 20.4551 9.83709C20.7891 8.97036 20.8634 8.02509 20.6689 7.11682C20.4744 6.20855 20.0195 5.37662 19.3598 4.7227ZM7.47499 13.2027L4.07979 16.6027C3.77983 16.9027 3.61133 17.3096 3.61133 17.7339C3.61133 18.1582 3.77983 18.5651 4.07979 18.8651L5.21099 19.9963C5.51103 20.2963 5.91792 20.4648 6.34219 20.4648C6.76645 20.4648 7.17334 20.2963 7.47339 19.9963L10.867 16.6027L14.2622 13.2075L10.8686 9.8139L7.47499 13.2027ZM8.66059 16.5419L7.52939 15.4107L10.8686 12.0763L11.9998 13.2075L8.66059 16.5419Z" fill="#7C813E"/>
</svg>
