<svg width="24" height="24" viewBox="0 0 24 24" fill="none" xmlns="http://www.w3.org/2000/svg">
<path d="M12 9C12 12.0885 10.25 14.632 8 14.9635V19.5H16V15.023H13.6365C13.2679 15.0232 12.9101 14.8989 12.621 14.6703C12.3318 14.4417 12.1283 14.1223 12.0434 13.7636C11.9584 13.405 11.9971 13.0281 12.153 12.6942C12.3089 12.3602 12.573 12.0887 12.9025 11.9235C12.7567 11.4337 12.7996 10.9071 13.0228 10.4473C13.2459 9.9876 13.633 9.62805 14.108 9.4395C14.0252 9.07979 14.0247 8.70606 14.1063 8.3461C14.188 7.98614 14.3498 7.64923 14.5797 7.36046C14.8095 7.07168 15.1016 6.83846 15.4341 6.67817C15.7665 6.51788 16.1309 6.43463 16.5 6.43463C16.8691 6.43463 17.2335 6.51788 17.5659 6.67817C17.8984 6.83846 18.1905 7.07168 18.4203 7.36046C18.6502 7.64923 18.812 7.98614 18.8937 8.3461C18.9753 8.70606 18.9748 9.07979 18.892 9.4395C19.367 9.62805 19.7541 9.9876 19.9772 10.4473C20.2004 10.9071 20.2433 11.4337 20.0975 11.9235C20.427 12.0887 20.6911 12.3602 20.847 12.6942C21.0029 13.0281 21.0416 13.405 20.9566 13.7636C20.8717 14.1223 20.6682 14.4417 20.379 14.6703C20.0899 14.8989 19.7321 15.0232 19.3635 15.023H17V19.5H20.25C20.4489 19.5 20.6397 19.579 20.7803 19.7197C20.921 19.8603 21 20.0511 21 20.25C21 20.4489 20.921 20.6397 20.7803 20.7803C20.6397 20.921 20.4489 21 20.25 21H3.75C3.55109 21 3.36032 20.921 3.21967 20.7803C3.07902 20.6397 3 20.4489 3 20.25C3 20.0511 3.07902 19.8603 3.21967 19.7197C3.36032 19.579 3.55109 19.5 3.75 19.5H7V14.9635C4.75 14.632 3 12.0885 3 9C3 5.6865 5.015 3 7.5 3C9.985 3 12 5.6865 12 9Z" fill="#7C813E"/>
<path d="M12 9C12 12.0885 10.25 14.632 8 14.9635V19.5H16V15.023H13.6365C13.2679 15.0232 12.9101 14.8989 12.621 14.6703C12.3318 14.4417 12.1283 14.1223 12.0434 13.7636C11.9584 13.405 11.9971 13.0281 12.153 12.6942C12.3089 12.3602 12.573 12.0887 12.9025 11.9235C12.7567 11.4337 12.7996 10.9071 13.0228 10.4473C13.2459 9.9876 13.633 9.62805 14.108 9.4395C14.0252 9.07979 14.0247 8.70606 14.1063 8.3461C14.188 7.98614 14.3498 7.64923 14.5797 7.36046C14.8095 7.07168 15.1016 6.83846 15.4341 6.67817C15.7665 6.51788 16.1309 6.43463 16.5 6.43463C16.8691 6.43463 17.2335 6.51788 17.5659 6.67817C17.8984 6.83846 18.1905 7.07168 18.4203 7.36046C18.6502 7.64923 18.812 7.98614 18.8937 8.3461C18.9753 8.70606 18.9748 9.07979 18.892 9.4395C19.367 9.62805 19.7541 9.9876 19.9772 10.4473C20.2004 10.9071 20.2433 11.4337 20.0975 11.9235C20.427 12.0887 20.6911 12.3602 20.847 12.6942C21.0029 13.0281 21.0416 13.405 20.9566 13.7636C20.8717 14.1223 20.6682 14.4417 20.379 14.6703C20.0899 14.8989 19.7321 15.0232 19.3635 15.023H17V19.5H20.25C20.4489 19.5 20.6397 19.579 20.7803 19.7197C20.921 19.8603 21 20.0511 21 20.25C21 20.4489 20.921 20.6397 20.7803 20.7803C20.6397 20.921 20.4489 21 20.25 21H3.75C3.55109 21 3.36032 20.921 3.21967 20.7803C3.07902 20.6397 3 20.4489 3 20.25C3 20.0511 3.07902 19.8603 3.21967 19.7197C3.36032 19.579 3.55109 19.5 3.75 19.5H7V14.9635C4.75 14.632 3 12.0885 3 9C3 5.6865 5.015 3 7.5 3C9.985 3 12 5.6865 12 9Z" fill="#7C813E"/>
</svg>
